<?xml version="1.0" encoding="iso-8859-1"?>
<!-- Generator: Adobe Illustrator 19.0.0, SVG Export Plug-In . SVG Version: 6.00 Build 0)  -->
<svg version="1.1" id="Layer_1" xmlns="http://www.w3.org/2000/svg" xmlns:xlink="http://www.w3.org/1999/xlink" x="0px" y="0px"
	 viewBox="0 0 511.999 511.999" style="enable-background:new 0 0 511.999 511.999;" xml:space="preserve">
<path style="fill:#C7F0F1;" d="M433.384,366.531V104.993H175.171v261.538c0,29.396,11.389,56.116,29.969,76.045h198.275
	C421.995,422.648,433.384,395.926,433.384,366.531z"/>
<path style="fill:#FCA430;" d="M175.171,104.993h96.518c-0.798-52.638-43.691-95.069-96.518-95.069
	c-53.327,0-96.556,43.229-96.556,96.556s43.229,96.556,96.556,96.556V104.993z"/>
<path style="fill:#FFDE55;" d="M175.171,104.993h55.991c-0.791-30.254-25.546-54.541-55.991-54.541
	c-30.944,0-56.029,25.085-56.029,56.029s25.085,56.029,56.029,56.029V104.993z"/>
<path style="fill:#57C3FF;" d="M403.291,442.71c0.042-0.045,0.082-0.09,0.124-0.135H205.14c0.042,0.045,0.082,0.09,0.124,0.135
	c-7.264,3.598-12.271,11.065-12.271,19.72v17.628c0,12.16,9.857,22.018,22.018,22.018h178.533c12.159,0,22.018-9.857,22.018-22.018
	v-17.628C415.561,453.775,410.555,446.309,403.291,442.71z"/>
<path style="fill:#FFDE55;" d="M304.277,423.78c-46.703,0-84.697-37.996-84.697-84.698V166.624h169.395v172.458
	C388.975,385.785,350.979,423.78,304.277,423.78z"/>
<g>
	
		<rect x="296.704" y="337.366" transform="matrix(-0.6643 0.7475 -0.7475 -0.6643 826.7511 370.3995)" style="fill:#C7F0F1;" width="66.986" height="66.986"/>
	<rect x="223.479" y="296.875" style="fill:#C7F0F1;" width="68.086" height="66.984"/>
</g>
<path d="M443.308,104.993c0-5.481-4.443-9.924-9.924-9.924H314.201V55.157l57.38-34.095c4.712-2.799,6.262-8.889,3.462-13.6
	c-2.799-4.713-8.89-6.263-13.6-3.462l-62.234,36.978c-3.01,1.788-4.855,5.03-4.855,8.531v45.559h-13.338
	c-2.588-24.393-13.429-46.98-31.106-64.415C229.868,10.886,203.325,0,175.171,0C116.458,0,68.691,47.766,68.691,106.479
	c0,55.367,42.479,100.992,96.556,106.013V366.53c0,27.3,9.094,53.482,25.787,74.793c-5.059,5.715-7.964,13.143-7.964,21.107v17.628
	c0,17.612,14.329,31.941,31.941,31.941h178.533c17.612,0,31.941-14.329,31.941-31.941v-17.627c0-7.965-2.905-15.392-7.964-21.108
	c16.693-21.311,25.786-47.492,25.786-74.792V104.993z M88.539,106.479c0-47.769,38.863-86.632,86.632-86.632
	c43.628,0,80.211,32.919,85.851,75.222h-20.901c-2.356-13.555-8.886-26.015-18.903-35.793
	c-12.384-12.09-28.737-18.749-46.048-18.749c-36.366,0-65.952,29.586-65.952,65.952c0,32.993,24.354,60.404,56.029,65.205v20.862
	C122.135,187.608,88.539,150.894,88.539,106.479z M175.171,95.069c-5.481,0-9.924,4.443-9.924,9.924v46.517
	c-20.669-4.551-36.182-23.013-36.182-45.029c0-25.422,20.683-46.105,46.105-46.105c21.66,0,39.665,14.594,44.69,34.694
	C219.861,95.069,175.171,95.069,175.171,95.069z M185.094,203.036v-40.527v-47.592h46.067h40.527h22.665v41.784H219.58
	c-5.481,0-9.924,4.443-9.924,9.924v172.458c0,47.383,35.011,86.741,80.521,93.57h-80.603c-15.817-18.429-24.48-41.745-24.48-66.121
	L185.094,203.036L185.094,203.036z M332.143,404.107l-35.238-31.313l31.313-35.238l35.238,31.313L332.143,404.107z M281.643,353.94
	H233.4v-47.14h48.243V353.94z M272.985,373.787c0.046,2.679,1.158,5.332,3.319,7.252l36.384,32.331
	c-2.763,0.311-5.566,0.486-8.41,0.486c-28.709,0-53.675-16.272-66.201-40.069L272.985,373.787L272.985,373.787z M379.051,197.161
	H298.15c-5.481,0-9.924,4.443-9.924,9.924c0,5.481,4.443,9.924,9.924,9.924h80.901v122.073c0,5.358-0.579,10.583-1.654,15.624
	l-43.412-38.577c-4.095-3.64-10.369-3.27-14.01,0.827l-18.484,20.801v-40.88c0-5.481-4.443-9.924-9.924-9.924h-62.063v-26.678
	h81.433c5.481,0,9.924-4.443,9.924-9.924s-4.443-9.924-9.924-9.924h-81.433v-63.879h149.547V197.161z M405.638,480.059
	c0,6.669-5.425,12.094-12.094,12.094H215.011c-6.669,0-12.094-5.425-12.094-12.094v-17.628c0-4.022,1.964-7.69,5.225-9.932h192.27
	c3.261,2.242,5.226,5.91,5.226,9.932V480.059z M423.461,366.531c0,24.375-8.662,47.692-24.481,66.121h-80.603
	c45.511-6.828,80.521-46.186,80.521-93.57V166.624c0-5.481-4.443-9.924-9.924-9.924h-74.774v-41.784h109.26V366.531z"/>
<path d="M261.17,217.011c2.62,0,5.17-1.062,7.016-2.908c1.846-1.846,2.908-4.406,2.908-7.016c0-2.62-1.062-5.17-2.908-7.016
	c-1.846-1.846-4.396-2.908-7.016-2.908c-2.61,0-5.17,1.062-7.016,2.908c-1.846,1.846-2.908,4.396-2.908,7.016
	c0,2.61,1.062,5.17,2.908,7.016C256,215.948,258.559,217.011,261.17,217.011z"/>
<path d="M347.911,260.278c2.62,0,5.17-1.062,7.016-2.908c1.856-1.846,2.908-4.406,2.908-7.016c0-2.61-1.052-5.17-2.908-7.016
	c-1.846-1.856-4.396-2.908-7.016-2.908c-2.61,0-5.17,1.052-7.016,2.908c-1.846,1.846-2.908,4.406-2.908,7.016
	c0,2.61,1.062,5.16,2.908,7.016C342.741,259.215,345.301,260.278,347.911,260.278z"/>
<g>
</g>
<g>
</g>
<g>
</g>
<g>
</g>
<g>
</g>
<g>
</g>
<g>
</g>
<g>
</g>
<g>
</g>
<g>
</g>
<g>
</g>
<g>
</g>
<g>
</g>
<g>
</g>
<g>
</g>
</svg>
